<?xml version="1.0" encoding="UTF-8"?>
<svg xmlns="http://www.w3.org/2000/svg" version="1.1" viewBox="0 0 455.9 70.5">
  <defs>
    <style>
      .cls-1 {
        fill: #fff;
      }
    </style>
  </defs>
  <!-- Generator: Adobe Illustrator 28.7.2, SVG Export Plug-In . SVG Version: 1.2.0 Build 154)  -->
  <g>
    <g id="Capa_1">
      <g id="content">
        <g>
          <path class="cls-1" d="M32.4,66.5H1.4v-1.3c5.1,0,6.5-.9,6.5-9.8v-31.6c0-8.8-1.4-9.8-6.5-9.8v-1.3h29.4c2.6,0,4.1-.5,3.4-2.9l1.2-.3,3.6,13.5-1.3.4c-3.1-6.6-4.8-9.1-15.2-9.1h-2.3c-7.2,0-7.9.6-7.9,5.6v17.5h5.6c7.7,0,8.4-2.2,8.4-8.5h1.5v18.6h-1.5c0-6.8-.8-8.5-8.3-8.5h-5.7v20.2c0,5,.7,5.6,7.9,5.6h4.6c8.9,0,11.8-1.9,14.7-10.1l1.5.4-4,14.5-1.2-.3c.7-2.5-.8-2.9-3.4-2.9"/>
          <path class="cls-1" d="M74.9,66.5h-31v-1.3c4.9,0,6.5-.9,6.5-9.8v-31.6c0-8.8-1.4-9.8-6.5-9.8v-1.3h17.4v1.3c-5.1,0-6.5.9-6.5,9.8v35.5c0,5,1.5,5.6,8.7,5.6h2.5c11.9,0,13.7-3,17-12.8l1.3.4-4.8,17.2-1.2-.3c.7-2.5-.8-2.9-3.4-2.9"/>
        </g>
      </g>
    </g>
  </g>
</svg>