<?xml version="1.0" encoding="UTF-8"?>
<svg id="content" xmlns="http://www.w3.org/2000/svg" viewBox="0 0 345 70.5">
  <defs>
    <style>
      .cls-1 {
        fill: #141414;
      }
    </style>
  </defs>
  <path class="cls-1" d="M73.58,56.62l4.22-23.09c1.3-7.36,4.53-18.03,10.59-25.4-3.91-.84-8.13-1.61-12.58-1.61-17.19,0-28,10.97-28,26.7,0,2.38.23,4.53.69,6.52,8.44,1.69,15.27,3.91,15.27,8.44,0,2.07-1.46,4.07-5.45,4.07-5.6,0-11.12-3.99-13.43-11.43-5.37-.77-11.36-1.46-16.8-2.38C11.66,35.6,0,30.15,0,19.02,0,10.05,7.67,4.98,12.28,4.98c1.84,0,2.76.77,2.76,1.99,0,.92-.69,1.53-1.61,1.53-1.46,0-2.15-1.38-3.91-1.38-3.07,0-5.68,4.14-5.68,9.13,0,9.9,10.2,16.42,26.93,20.1,4.3.92,9.05,1.69,13.66,2.53-.38-1.77-.61-3.68-.61-5.76,0-17.88,15.19-27.93,31.07-27.93,4.14,0,9.59.69,14.88,1.46C93.6,2.61,98.43-.08,104.5-.08s8.44,2.46,8.44,5.37c0,2.69-2.15,6.29-8.13,6.29-3.68,0-8.29-1.38-13.58-2.76-5.37,7.44-7.9,18.64-9.21,25.7l-3.84,20.95c-.54,2.92-.69,3.99-.69,5.29,0,4.37,1.76,4.91,6.21,4.91v1.3h-18.57v-1.3c4.99,0,6.98-.92,8.44-9.05ZM58.85,51.02c2.38,0,3.61-1.15,3.61-2.76,0-3.61-5.75-5.45-13.5-6.75,1.84,5.98,5.6,9.51,9.9,9.51ZM105.19,8.51c4.07,0,5.68-1.61,5.68-3.38s-1.76-3.91-6.37-3.91c-4.91,0-8.75,2.3-11.82,5.83,5.14.77,9.9,1.46,12.51,1.46Z"/>
  <path class="cls-1" d="M96.04,40.51c0-16.57,12.58-28.62,29.08-28.62,5.6,0,9.36,1.38,12.35,1.38,1.92,0,3.45-.46,2.76-2.92l1.23-.31,4.14,15.73-1.38.38c-3.45-9.13-10.89-12.66-19.18-12.66-15.42,0-23.86,12.43-23.86,26.55,0,16.5,11.28,26.55,25.09,26.55,6.91,0,12.12-2.53,14.73-4.99v-12.2c0-4.83-1.61-5.37-7.21-5.37v-1.3h16.73v1.3c-3.84,0-5.06.54-5.06,5.37v11.97c-5.52,4.07-11.51,6.98-19.95,6.98-16.57,0-29.46-11.36-29.46-27.85Z"/>
  <path class="cls-1" d="M156.48,56.54V20.56c0-4.91-2.22-5.98-6.37-5.98v-1.3h9.28l37.82,45.88V23.78c0-6.83-2.69-9.21-9.9-9.21v-1.3h17.49v1.3c-3.99,0-5.75,2.46-5.75,9.13v43.96h-.54l-40.2-48.72v37.59c0,6.52,2.23,9.13,9.36,9.13v1.3h-17.49v-1.3c4.14,0,6.29-2.61,6.29-9.13Z"/>
  <path class="cls-1" d="M300.09,10.43l-1.23.31c.69,2.46-.77,2.53-3.38,2.53h-32.61c-2.61,0-4.14-.08-3.45-2.53l-1.23-.31-3.11,12.93c-4.81-7.51-13.14-11.47-22.21-11.47-15.81,0-27.62,10.51-27.62,29.08s12.43,27.39,26.47,27.39c15.81,0,27.62-10.67,27.62-29.23,0-5.27-1.11-9.81-3.03-13.6,2.97-6.75,5.46-10.64,12.08-10.64h3.15c4.07,0,5.37,1.46,5.37,5.52v35.52c0,8.82-1.53,9.74-7.21,9.74v1.3h18.87v-1.3c-5.68,0-7.21-.92-7.21-9.74V20.41c0-4.14,1.3-5.52,5.37-5.52h3.22c7.14,0,9.44,4.6,12.81,12.51l1.3-.38-3.99-16.57ZM232.27,66.75c-13.81,0-21.87-11.59-21.87-26.32,0-17.03,8.82-26.93,21.94-26.93,13.89,0,21.87,11.43,21.87,26.16,0,17.03-8.82,27.08-21.94,27.08Z"/>
  <path class="cls-1" d="M332.65,56.62l-3.15-8.21h-22.17l-2.61,6.75c-2.92,7.6-.31,10.51,5.68,10.51v1.3h-16.26v-1.3c4.22,0,5.98-3.3,8.82-10.66l14.58-37.82-1.15-2.99v-.46c1.46-.84,2.23-1.69,3.07-3.15h.46l17.65,46.03c2.69,6.98,3.68,9.05,7.44,9.05v1.3h-16.73v-1.3c5.45,0,7.06-2.07,4.37-9.05ZM328.89,46.72l-10.51-27.24-10.43,27.24h20.94Z"/>
</svg>