<svg width="71" height="70" viewBox="0 0 71 70" fill="none" xmlns="http://www.w3.org/2000/svg">
<path d="M16.6994 23.0188H2.07251V69.663H16.6994V23.0188Z" fill="#222222"/>
<path d="M56.2661 22.0077C55.7268 21.9403 55.1539 21.9066 54.5809 21.8729C46.3912 21.5359 41.774 26.389 40.1563 28.4786C39.7182 29.0515 39.5159 29.3886 39.5159 29.3886V23.1536H25.5294V69.7978H39.5159H40.1563C40.1563 65.0458 40.1563 60.3274 40.1563 55.5754C40.1563 53.014 40.1563 50.4526 40.1563 47.8912C40.1563 44.7232 39.9204 41.3529 41.5044 38.4545C42.8525 36.0279 45.2791 34.8147 48.009 34.8147C56.0976 34.8147 56.2661 42.1281 56.2661 42.8021C56.2661 42.8358 56.2661 42.8695 56.2661 42.8695V70H70.893V39.5667C70.893 29.1526 65.6017 23.0188 56.2661 22.0077Z" fill="#222222"/>
<path d="M9.38583 16.986C14.0764 16.986 17.8789 13.1836 17.8789 8.49303C17.8789 3.80246 14.0764 0 9.38583 0C4.69526 0 0.892822 3.80246 0.892822 8.49303C0.892822 13.1836 4.69526 16.986 9.38583 16.986Z" fill="#222222"/>
</svg>
