<?xml version="1.0" encoding="UTF-8"?>
<svg xmlns="http://www.w3.org/2000/svg" version="1.1" viewBox="0 0 455.9 70.5">
  <defs>
    <style>
      .cls-1 {
        fill: #fff;
      }
    </style>
  </defs>
  <!-- Generator: Adobe Illustrator 28.7.2, SVG Export Plug-In . SVG Version: 1.2.0 Build 154)  -->
  <g>
    <g id="Capa_1">
      <g id="content">
        <g>
          <path class="cls-1" d="M68.5,54.2l4.2-23.2c1.4-7.4,4.1-12.4,7.9-15.7l.5.5c-1.1,2.5-2.2,5.4-3.7,13.8l-1.8,10.4c1.1.4,4.7.6,6.6.6,10.1,0,17.8-7.4,17.8-17.4s-7.5-16.4-19.9-16.4-29.2,11.2-29.2,28,.5,5.8,1.3,8.1c9.8.3,14.3,2.2,14.3,5.6s-2.1,4-5.6,4-9.7-2.2-12.8-8.2C25.7,43.8.4,32.7.4,18.1S6.6,3.4,12.8,3.4s3.4.8,3.4,2.1-.6,1.5-1.6,1.5c-1.6,0-2.4-1.5-4.2-1.5-3.3,0-5.5,4.6-5.5,9.5,0,16,22.3,26.9,42.6,27.7-.9-2.4-1.5-5.1-1.5-8.5,0-18,16-29.2,34-29.2s24.7,6.9,24.7,18.1-9.2,19-22.5,19-5.2-.2-7.1-.5l-2.1,11.4c-.6,3.1-.8,4.5-.8,5.7,0,4.1,2.2,4.7,6.2,4.7v1.3h-18.6v-1.3c5,0,7-.9,8.5-9.1M61.5,51c2.2,0,3.7-1.1,3.7-2.6,0-2.5-3.6-4.2-12.4-4.5,2,4.5,5.4,7.1,8.8,7.1"/>
          <path class="cls-1" d="M111.4,53.5v-31.6c0-8.8-1.4-9.8-6.5-9.8v-1.3h20.2c11.7,0,18.4,5,18.4,12.6s-6,12.1-15.3,13.4l8.7,11.1c9.7,12.3,12.1,15.4,17,15.4v1.3h-9.8c-3-4.1-5.8-7.8-11.6-15.3l-9.4-12.1h-7.3v16.4c0,8.8,1.4,9.8,6.5,9.8v1.3h-17.4v-1.3c5.1,0,6.5-.9,6.5-9.8M138.6,23.7c0-6.2-4.2-11.3-13.4-11.3h-1.1c-6.8,0-8.4.6-8.4,5.6v17.5h7.6c8.2,0,15.2-3.8,15.2-11.8"/>
          <path class="cls-1" d="M148.8,38.5c0-18.6,11.8-29.1,27.7-29.1s26.5,9.6,26.5,27.3-11.8,29.3-27.7,29.3-26.5-9.8-26.5-27.4M197.8,37.2c0-14.7-8-26.2-21.9-26.2s-22,9.9-22,27,8.1,26.3,21.9,26.3,22-10.1,22-27.1"/>
          <path class="cls-1" d="M225.4,53.5v-10.4l-13.7-22.9c-3.4-5.7-4.9-8.1-8.7-8.1v-1.3h16.1v1.3c-4.5,0-5.8,2.2-3.2,6.5l13.2,22.2,13-22c2.2-3.7,1.1-6.8-5.5-6.8v-1.3h15.8v1.4c-2.1,0-5.8,2.3-9.6,8.8l-13,22v10.6c0,8.8,1.5,9.8,7.1,9.8v1.3h-18.7v-1.3c5.6,0,7.1-.9,7.1-9.8"/>
          <path class="cls-1" d="M285.7,64.6h-31v-1.3c5.1,0,6.5-.9,6.5-9.8v-31.6c0-8.8-1.4-9.8-6.5-9.8v-1.3h29.4c2.6,0,4.1-.5,3.4-2.9l1.2-.3,3.6,13.5-1.3.4c-3.1-6.6-4.8-9.1-15.2-9.1h-2.3c-7.2,0-7.9.6-7.9,5.6v17.5h5.6c7.7,0,8.4-2.2,8.4-8.5h1.5v18.6h-1.5c0-6.8-.8-8.5-8.3-8.5h-5.7v20.2c0,5,.7,5.6,7.9,5.6h4.6c8.9,0,11.8-1.9,14.7-10.1l1.5.4-4,14.5-1.2-.3c.7-2.5-.8-2.9-3.4-2.9"/>
          <path class="cls-1" d="M298.1,37.9c0-16.7,12.4-28.5,27.7-28.5s8.6,1.4,11.4,1.4,3.5-.5,2.8-2.9l1.2-.3,4.2,15.9-1.3.4c-3.6-9.4-11.3-12.8-18.7-12.8-13.8,0-22.3,12.1-22.3,26.4s11,26.1,23,26.1,15.4-3.7,19.7-11.4l1.2.8c-5,9.1-13.3,13.1-22,13.1-14.6,0-27.1-11.4-27.1-28"/>
          <path class="cls-1" d="M371.5,53.5V17.9c0-4.1-1.3-5.5-5.4-5.5h-3.1c-7.2,0-9.5,4.6-12.9,12.5l-1.3-.4,4-16.6,1.2.3c-.7,2.5.8,2.5,3.5,2.5h32.6c2.6,0,4.1,0,3.4-2.5l1.2-.3,4,16.6-1.3.4c-3.4-7.9-5.7-12.5-12.8-12.5h-3.2c-4.1,0-5.4,1.4-5.4,5.5v35.6c0,8.8,1.5,9.8,7.2,9.8v1.3h-18.9v-1.3c5.7,0,7.2-.9,7.2-9.8"/>
          <path class="cls-1" d="M401.7,38.5c0-18.6,11.8-29.1,27.7-29.1s26.5,9.6,26.5,27.3-11.8,29.3-27.7,29.3-26.5-9.8-26.5-27.4M450.8,37.2c0-14.7-8-26.2-21.9-26.2s-22,9.9-22,27,8.1,26.3,21.9,26.3,22-10.1,22-27.1"/>
        </g>
      </g>
    </g>
  </g>
</svg>