<?xml version="1.0" encoding="UTF-8"?>
<svg id="content" xmlns="http://www.w3.org/2000/svg" viewBox="0 0 345 70.5">
  <defs>
    <style>
      .cls-1 {
        fill: #fff;
      }
    </style>
  </defs>
  <path class="cls-1" d="M23.04,55.96V20.44c0-4.07-1.3-5.52-5.37-5.52h-3.15c-7.21,0-9.51,4.6-12.89,12.51l-1.3-.38,3.99-16.57,1.23.31c-.69,2.46.84,2.53,3.45,2.53h32.61c2.61,0,4.07-.08,3.38-2.53l1.23-.31,3.99,16.57-1.3.38c-3.38-7.9-5.68-12.51-12.81-12.51h-3.22c-4.07,0-5.37,1.38-5.37,5.52v35.52c0,8.82,1.53,9.74,7.21,9.74v1.3H15.82v-1.3c5.68,0,7.21-.92,7.21-9.74Z"/>
  <path class="cls-1" d="M59.56,55.96v-31.61c0-8.82-1.38-9.74-6.44-9.74v-1.3h17.34v1.3c-4.83,0-6.44.92-6.44,9.74v31.61c0,8.82,1.38,9.74,6.44,9.74v1.3h-17.34v-1.3c5.06,0,6.44-.92,6.44-9.74Z"/>
  <path class="cls-1" d="M105.67,67.01h-30.92v-1.3c5.06,0,6.44-.92,6.44-9.74v-31.61c0-8.82-1.38-9.74-6.44-9.74v-1.3h29.38c2.61,0,4.07-.46,3.38-2.92l1.23-.31,3.61,13.5-1.3.38c-3.07-6.6-4.76-9.05-15.19-9.05h-2.3c-7.21,0-7.9.61-7.9,5.6v17.49h5.6c7.67,0,8.36-2.15,8.36-8.52h1.53v18.57h-1.53c0-6.75-.84-8.44-8.29-8.44h-5.68v20.18c0,4.99.69,5.6,7.9,5.6h4.6c8.9,0,11.82-1.92,14.65-10.05l1.46.38-3.99,14.5-1.23-.31c.69-2.45-.77-2.92-3.38-2.92Z"/>
  <path class="cls-1" d="M238.78,56.65l-17.65-46.03h-.46c-.84,1.46-1.61,2.3-3.07,3.15v.46l1.15,2.99-14.58,37.82c-1.56,4.05-2.8,6.87-4.3,8.59-2.63-2.12-5.81-6.13-11.43-13.27l-8.67-11.05c9.28-1.3,15.27-6.29,15.27-13.43,0-7.6-6.75-12.58-18.41-12.58h-20.18v1.3c5.06,0,6.44.92,6.44,9.74v31.61c0,5.33-.51,7.77-2.03,8.87-3.06-1.59-6.28-5.64-13.24-14.47l-8.67-11.05c9.28-1.3,15.27-6.29,15.27-13.43,0-7.6-6.75-12.58-18.41-12.58h-20.18v1.3c5.06,0,6.44.92,6.44,9.74v31.61c0,8.82-1.38,9.74-6.44,9.74v1.3h17.34v-1.3c-5.06,0-6.44-.92-6.44-9.74v-16.34h7.29l9.44,12.12c5.83,7.52,8.59,11.12,11.58,15.27h18.95v-1.3c-5.06,0-6.44-.92-6.44-9.74v-16.34h7.29l9.44,12.12c5.63,7.26,8.4,10.87,11.28,14.84v.43h16.27v-1.3c-5.98,0-8.59-2.92-5.68-10.51l2.61-6.75h22.17l3.15,8.21c2.69,6.98,1.07,9.05-4.37,9.05v1.3h16.73v-1.3c-3.76,0-4.76-2.07-7.44-9.05ZM126.53,38.01v-17.49c0-4.99,1.53-5.6,8.36-5.6h1.07c9.13,0,13.35,5.06,13.35,11.28,0,8.06-6.98,11.82-15.19,11.82h-7.6ZM167.35,38.01v-17.49c0-4.99,1.53-5.6,8.36-5.6h1.07c9.13,0,13.35,5.06,13.35,11.28,0,8.06-6.98,11.82-15.19,11.82h-7.6ZM209.16,46.76l10.43-27.24,10.51,27.24h-20.94Z"/>
</svg>