<svg width="792" height="308" viewBox="0 0 792 308" fill="none" xmlns="http://www.w3.org/2000/svg">
<g clip-path="url(#clip0_76_1115)">
<path d="M80.6233 105.456V23.8125C80.6233 14.4576 77.6389 11.1248 68.2956 11.1248H61.0643C44.5127 11.1248 39.2327 21.6979 31.4734 39.8791L28.489 39.0057L37.6487 0.873413L40.4723 1.58595C38.8883 7.24028 42.4007 7.40117 48.3923 7.40117H123.254C129.245 7.40117 132.597 7.21729 131.013 1.58595L133.836 0.873413L142.996 38.9597L140.012 39.8331C132.252 21.6749 126.972 11.0788 110.604 11.0788H103.212C93.8692 11.0788 90.8848 14.2507 90.8848 23.7665V105.41C90.8848 125.682 94.3972 127.797 107.436 127.797V130.785H64.1175V127.797C77.1568 127.797 80.6692 125.682 80.6692 105.41L80.6233 105.456Z" fill="#222222"/>
<path d="M164.461 105.456V32.7997C164.461 12.5269 161.293 10.4123 149.677 10.4123V7.42419H189.483V10.4123C178.395 10.4123 174.699 12.5269 174.699 32.7997V105.456C174.699 125.728 177.867 127.843 189.483 127.843V130.831H149.677V127.843C161.293 127.843 164.461 125.728 164.461 105.456Z" fill="#222222"/>
<path d="M270.313 130.854H199.332V127.866C210.948 127.866 214.116 125.751 214.116 105.479V32.7997C214.116 12.5269 210.948 10.4122 199.332 10.4122V7.42418H266.778C272.769 7.42418 276.121 6.36687 274.537 0.712537L277.361 0L285.648 31.0299L282.664 31.9033C275.616 16.7331 271.736 11.1018 247.793 11.1018H242.513C225.961 11.1018 224.377 12.5039 224.377 23.9734V64.1743H237.233C254.84 64.1743 256.424 59.2325 256.424 44.591H259.937V87.2743H256.424C256.424 71.7594 254.496 67.8749 237.393 67.8749H224.354V114.259C224.354 125.728 225.938 127.13 242.49 127.13H253.05C273.481 127.13 280.184 122.717 286.681 104.03L290.033 104.904L280.873 138.232L278.049 137.52C279.633 131.888 276.282 130.808 270.29 130.808L270.313 130.854Z" fill="#222222"/>
<path d="M575.887 107.042L535.369 1.24121H534.313C532.385 4.59703 530.617 6.52778 527.265 8.48151V9.53882L529.905 16.4114L496.435 103.341C492.854 112.65 490.007 119.132 486.563 123.085C480.526 118.212 473.226 108.995 460.324 92.5839L440.421 67.1854C461.725 64.1973 475.475 52.7278 475.475 36.3164C475.475 18.8478 459.98 7.40121 433.213 7.40121H386.886V10.3893C398.502 10.3893 401.67 12.5039 401.67 32.7767V105.433C401.67 117.684 400.499 123.292 397.01 125.82C389.985 122.166 382.593 112.857 366.616 92.5609L346.712 67.1624C368.016 64.1743 381.767 52.7048 381.767 36.2934C381.767 18.8248 366.271 7.37823 339.504 7.37823H293.178V10.3663C304.794 10.3663 307.962 12.4809 307.962 32.7537V105.41C307.962 125.682 304.794 127.797 293.178 127.797V130.785H332.984V127.797C321.368 127.797 318.2 125.682 318.2 105.41V67.852H334.936L356.607 95.7099C369.99 112.995 376.326 121.269 383.19 130.808H426.693V127.82C415.077 127.82 411.909 125.705 411.909 105.433V67.8749H428.644L450.315 95.7329C463.24 112.42 469.599 120.718 476.21 129.843V130.831H513.56V127.843C499.832 127.843 493.841 121.131 500.521 103.686L506.513 88.1708H557.407L564.639 107.042C570.814 123.085 567.095 127.843 554.607 127.843V130.831H593.013V127.843C584.381 127.843 582.086 123.085 575.933 107.042H575.887ZM318.2 64.1973V23.9734C318.2 12.5039 321.713 11.1018 337.392 11.1018H339.848C360.808 11.1018 370.495 22.7323 370.495 37.029C370.495 55.5549 354.472 64.1973 335.624 64.1973H318.177H318.2ZM411.909 64.1973V23.9734C411.909 12.5039 415.421 11.1018 431.101 11.1018H433.557C454.516 11.1018 464.204 22.7323 464.204 37.029C464.204 55.5549 448.18 64.1973 429.333 64.1973H411.886H411.909ZM507.89 84.2863L531.834 21.6749L555.961 84.2863H507.89Z" fill="#222222"/>
<path d="M168.914 281.016L178.602 227.943C181.586 211.026 189.001 186.501 202.913 169.561C193.937 167.63 184.249 165.86 174.033 165.86C134.571 165.86 109.755 191.075 109.755 227.231C109.755 232.701 110.283 237.643 111.339 242.217C130.714 246.101 146.394 251.204 146.394 261.616C146.394 266.374 143.042 270.971 133.882 270.971C121.027 270.971 108.355 261.8 103.052 244.699C90.7242 242.929 76.9732 241.343 64.4849 239.229C26.7673 232.701 0 220.174 0 194.615C0 173.974 17.6077 162.344 28.1906 162.344C32.4146 162.344 34.5266 164.114 34.5266 166.918C34.5266 169.032 32.9426 170.434 30.8306 170.434C27.479 170.434 25.895 167.262 21.8546 167.262C14.807 167.262 8.8153 176.778 8.8153 188.248C8.8153 211.003 32.231 225.989 70.6372 234.448C80.5085 236.562 91.4129 238.332 101.996 240.263C101.123 236.195 100.595 231.805 100.595 227.024C100.595 185.926 135.466 162.826 171.921 162.826C181.425 162.826 193.937 164.412 206.081 166.182C214.896 156.827 225.984 150.667 239.896 150.667C253.807 150.667 259.271 156.322 259.271 163.01C259.271 169.193 254.335 177.468 240.607 177.468C232.159 177.468 221.576 174.296 209.432 171.124C197.105 188.225 191.297 213.968 188.289 230.196L179.474 278.349C178.234 285.061 177.89 287.52 177.89 290.508C177.89 300.553 181.93 301.794 192.146 301.794V304.782H149.516V301.794C160.971 301.794 165.539 299.679 168.891 280.993L168.914 281.016ZM135.099 268.144C140.563 268.144 143.386 265.501 143.386 261.8C143.386 253.502 130.186 249.273 112.395 246.285C116.619 260.03 125.251 268.144 135.122 268.144H135.099ZM241.48 170.457C250.823 170.457 254.519 166.757 254.519 162.688C254.519 158.62 250.479 153.701 239.896 153.701C228.624 153.701 219.809 158.988 212.761 167.102C224.561 168.871 235.488 170.457 241.48 170.457Z" fill="#222222"/>
<path d="M220.474 243.987C220.474 205.9 249.354 178.203 287.232 178.203C300.088 178.203 308.719 181.375 315.583 181.375C319.991 181.375 323.503 180.318 321.919 174.664L324.743 173.951L334.247 210.107L331.079 210.98C323.159 189.995 306.079 181.881 287.048 181.881C251.649 181.881 232.274 210.451 232.274 242.906C232.274 280.832 258.169 303.932 289.872 303.932C305.735 303.932 317.695 298.116 323.687 292.462V264.42C323.687 253.319 319.991 252.077 307.135 252.077V249.089H345.542V252.077C336.726 252.077 333.926 253.319 333.926 264.42V291.933C321.254 301.288 307.503 307.977 288.127 307.977C250.088 307.977 220.497 281.866 220.497 243.964L220.474 243.987Z" fill="#222222"/>
<path d="M359.224 280.832V198.131C359.224 186.846 354.127 184.386 344.6 184.386V181.398H365.904L452.726 286.854V205.556C452.726 189.857 446.55 184.386 429.999 184.386V181.398H470.15V184.386C460.99 184.386 456.95 190.041 456.95 205.372V306.414H455.71L363.425 194.431V280.832C363.425 295.818 368.544 301.817 384.912 301.817V304.805H344.761V301.817C354.265 301.817 359.201 295.818 359.201 280.832H359.224Z" fill="#222222"/>
<path d="M688.902 174.848L686.079 175.56C687.663 181.214 684.311 181.375 678.319 181.375H603.458C597.466 181.375 593.954 181.191 595.538 175.56L592.714 174.848L585.575 204.567C574.533 187.305 555.41 178.203 534.589 178.203C498.294 178.203 471.183 202.361 471.183 245.044C471.183 287.727 499.718 308 531.949 308C568.243 308 595.354 283.475 595.354 240.815C595.354 228.702 592.806 218.266 588.399 209.555C595.217 194.04 600.933 185.099 616.13 185.099H623.361C632.705 185.099 635.689 188.455 635.689 197.787V279.43C635.689 299.702 632.177 301.817 619.137 301.817V304.805H662.456V301.817C649.417 301.817 645.905 299.702 645.905 279.43V197.787C645.905 188.271 648.889 185.099 658.232 185.099H665.624C682.015 185.099 687.295 195.672 695.032 213.853L698.016 212.98L688.856 174.893L688.902 174.848ZM533.211 304.299C501.508 304.299 483.005 277.66 483.005 243.803C483.005 204.659 503.253 181.904 533.372 181.904C565.258 181.904 583.578 208.176 583.578 242.033C583.578 281.176 563.33 304.277 533.211 304.277V304.299Z" fill="#222222"/>
<path d="M763.649 281.016L756.417 262.145H705.523L699.531 277.66C692.828 295.128 698.819 301.817 712.57 301.817V304.805H675.243V301.817C684.931 301.817 688.971 294.232 695.491 277.315L728.961 190.385L726.321 183.513V182.456C729.673 180.525 731.441 178.571 733.369 175.215H734.425L774.943 281.016C781.119 297.059 783.391 301.817 792.023 301.817V304.805H753.617V301.817C766.128 301.817 769.824 297.059 763.649 281.016ZM755.017 258.26L730.89 195.649L706.946 258.26H755.017Z" fill="#222222"/>
</g>
<defs>
<clipPath id="clip0_76_1115">
<rect width="792" height="308" fill="white"/>
</clipPath>
</defs>
</svg>
