<svg width="61" height="60" viewBox="0 0 61 60" fill="none" xmlns="http://www.w3.org/2000/svg">
<path fill-rule="evenodd" clip-rule="evenodd" d="M50.8641 60H10.9216C5.40207 60 0.892822 55.4908 0.892822 49.9713V10.0287C0.892822 4.50924 5.40207 0 10.9216 0H50.8641C56.3836 0 60.8928 4.50924 60.8928 10.0287V49.9713C60.8928 55.5154 56.4082 60 50.8641 60ZM30.9052 45.4128C26.7902 45.4128 22.9216 43.8111 20.014 40.9035C17.1064 37.9959 15.5048 34.1273 15.5048 30.0123C15.5048 25.8974 17.1064 22.0288 20.014 19.1212C22.9216 16.2136 26.7902 14.6119 30.9052 14.6119C35.0202 14.6119 38.8887 16.2136 41.7963 19.1212C44.7039 22.0288 46.3056 25.8974 46.3056 30.0123C46.3056 34.1273 44.7039 37.9959 41.7963 40.9035C38.8641 43.8111 35.0202 45.4128 30.9052 45.4128ZM30.9052 17.8891C24.2276 17.8891 18.782 23.3101 18.782 30.0123C18.782 36.69 24.2029 42.1355 30.9052 42.1355C37.5828 42.1355 43.0284 36.7146 43.0284 30.0123C43.0037 23.3347 37.5828 17.8891 30.9052 17.8891ZM52.2644 11.1488C52.2644 12.7819 50.9405 14.1058 49.3074 14.1058C47.6743 14.1058 46.3505 12.7819 46.3505 11.1488C46.3505 9.51577 47.6743 8.19189 49.3074 8.19189C50.9405 8.19189 52.2644 9.51577 52.2644 11.1488Z" fill="#222222"/>
</svg>
