<svg width="62" height="70" viewBox="0 0 62 70" fill="none" xmlns="http://www.w3.org/2000/svg">
<path d="M45.4822 2.66285L43.7934 0H33.5732V23.9831L33.5384 47.4092C33.5558 47.5833 33.5732 47.7747 33.5732 47.9488C33.5732 53.814 28.8026 58.6002 22.9177 58.6002C17.0328 58.6002 12.2623 53.8314 12.2623 47.9488C12.2623 42.0835 17.0328 37.2974 22.9177 37.2974C24.1365 37.2974 25.3204 37.5236 26.4173 37.9065V26.2108C25.2856 26.0194 24.1191 25.915 22.9177 25.915C10.7823 25.9324 0.892944 35.818 0.892944 47.9662C0.892944 60.1144 10.7823 70 22.9351 70C35.0879 70 44.9773 60.1144 44.9773 47.9662V20.1019C49.3823 24.5052 55.0756 28.8041 61.3784 30.179V18.2223C54.5359 15.1939 47.7282 6.24814 45.4822 2.66285Z" fill="#222222"/>
</svg>
